<svg width="60" height="67" viewBox="0 0 60 67" fill="none" xmlns="http://www.w3.org/2000/svg">
<path d="M8.55256 59.0901C8.55256 59.0901 12.9296 62.92 16.7595 64.0143C16.7595 64.0143 11.2882 67.8442 4.72266 65.6557C4.72266 65.6557 9.09969 60.7315 8.55256 59.0901Z" fill="white"/>
<path d="M51.2285 28.9979C48.4929 19.1496 37.0032 13.1311 37.0032 13.1311C32.6261 9.84835 31.5319 0 31.5319 0C23.872 4.37705 22.7778 11.4897 22.7778 11.4897C-9.50287 21.8852 1.98685 48.6946 1.98685 48.6946C16.2122 52.5245 24.4192 41.5819 24.4192 41.5819C36.456 30.6393 47.9458 33.9221 47.9458 33.9221C52.8699 55.8073 34.8146 63.4672 34.8146 63.4672C52.3228 58.543 53.417 37.2049 53.417 37.2049C56.1527 36.1106 59.9826 30.6393 59.9826 30.6393C58.8883 31.1865 51.2285 28.9979 51.2285 28.9979ZM29.8905 32.8278C37.0032 15.3197 46.3044 30.6393 46.3044 30.6393C41.3802 27.3565 29.8905 32.8278 29.8905 32.8278Z" fill="white"/>
</svg>
