<svg width="166" height="173" viewBox="0 0 166 173" fill="none" xmlns="http://www.w3.org/2000/svg">
<g filter="url(#filter0_f_74_9074)">
<path d="M61.5526 112.09C61.5526 112.09 65.9296 115.92 69.7595 117.014C69.7595 117.014 64.2882 120.844 57.7227 118.656C57.7227 118.656 62.0997 113.731 61.5526 112.09Z" fill="#FEFEFF"/>
<path d="M61.5526 112.09C61.5526 112.09 65.9296 115.92 69.7595 117.014C69.7595 117.014 64.2882 120.844 57.7227 118.656C57.7227 118.656 62.0997 113.731 61.5526 112.09Z" fill="black" fill-opacity="0.3"/>
<path d="M104.229 81.9979C101.493 72.1496 90.0032 66.1311 90.0032 66.1311C85.6261 62.8484 84.5319 53 84.5319 53C76.872 57.377 75.7778 64.4897 75.7778 64.4897C43.4971 74.8852 54.9869 101.695 54.9869 101.695C69.2122 105.525 77.4192 94.5819 77.4192 94.5819C89.456 83.6393 100.946 86.9221 100.946 86.9221C105.87 108.807 87.8146 116.467 87.8146 116.467C105.323 111.543 106.417 90.2049 106.417 90.2049C109.153 89.1106 112.983 83.6393 112.983 83.6393C111.888 84.1865 104.229 81.9979 104.229 81.9979ZM82.8905 85.8278C90.0032 68.3197 99.3044 83.6393 99.3044 83.6393C94.3802 80.3565 82.8905 85.8278 82.8905 85.8278Z" fill="#FEFEFF"/>
<path d="M104.229 81.9979C101.493 72.1496 90.0032 66.1311 90.0032 66.1311C85.6261 62.8484 84.5319 53 84.5319 53C76.872 57.377 75.7778 64.4897 75.7778 64.4897C43.4971 74.8852 54.9869 101.695 54.9869 101.695C69.2122 105.525 77.4192 94.5819 77.4192 94.5819C89.456 83.6393 100.946 86.9221 100.946 86.9221C105.87 108.807 87.8146 116.467 87.8146 116.467C105.323 111.543 106.417 90.2049 106.417 90.2049C109.153 89.1106 112.983 83.6393 112.983 83.6393C111.888 84.1865 104.229 81.9979 104.229 81.9979ZM82.8905 85.8278C90.0032 68.3197 99.3044 83.6393 99.3044 83.6393C94.3802 80.3565 82.8905 85.8278 82.8905 85.8278Z" fill="black" fill-opacity="0.3"/>
</g>
<path d="M61.5701 112.09C61.5701 112.09 65.9472 115.92 69.7771 117.014C69.7771 117.014 64.3058 120.844 57.7402 118.656C57.7402 118.656 62.1173 113.731 61.5701 112.09Z" fill="white"/>
<path d="M104.246 81.9979C101.51 72.1496 90.0207 66.1311 90.0207 66.1311C85.6437 62.8484 84.5494 53 84.5494 53C76.8896 57.377 75.7954 64.4897 75.7954 64.4897C43.5147 74.8852 55.0044 101.695 55.0044 101.695C69.2298 105.525 77.4368 94.5819 77.4368 94.5819C89.4736 83.6393 100.963 86.9221 100.963 86.9221C105.887 108.807 87.8322 116.467 87.8322 116.467C105.34 111.543 106.435 90.2049 106.435 90.2049C109.17 89.1106 113 83.6393 113 83.6393C111.906 84.1865 104.246 81.9979 104.246 81.9979ZM82.908 85.8278C90.0207 68.3197 99.3219 83.6393 99.3219 83.6393C94.3978 80.3565 82.908 85.8278 82.908 85.8278Z" fill="white"/>
<defs>
<filter id="filter0_f_74_9074" x="0" y="0" width="165.982" height="172.331" filterUnits="userSpaceOnUse" color-interpolation-filters="sRGB">
<feFlood flood-opacity="0" result="BackgroundImageFix"/>
<feBlend mode="normal" in="SourceGraphic" in2="BackgroundImageFix" result="shape"/>
<feGaussianBlur stdDeviation="26.5" result="effect1_foregroundBlur_74_9074"/>
</filter>
</defs>
</svg>
